<svg xmlns="http://www.w3.org/2000/svg" viewBox="0 0 1160 468" fill="none" stroke-linecap="round" stroke-width="4.4"><path stroke="#2A4661" d="M17.6 0h0M26.4 0h0M35.2 0h0M52.8 0h0M61.6 0h0M70.4 0h0M79.2 0h0M96.8 0h0M123.2 0h0M132 0h0M167.2 0h0M176 0h0M184.8 0h0M193.6 0h0M202.4 0h0M211.2 0h0M220 0h0M299.2 0h0M308 0h0M316.8 0h0M325.6 0h0M334.4 0h0M343.2 0h0M352 0h0M360.8 0h0M369.6 0h0M378.4 0h0M387.2 0h0M396 0h0M404.8 0h0M413.6 0h0M422.4 0h0M730.4 0h0M739.2 0h0M800.8 0h0M809.6 0h0M818.4 0h0M827.2 0h0M836 0h0M853.6 0h0M862.4 0h0M871.2 0h0M880 0h0M888.8 0h0M897.6 0h0M906.4 0h0M915.2 0h0M924 0h0M932.8 0h0M941.6 0h0M950.4 0h0M959.2 0h0M968 0h0M976.8 0h0M985.6 0h0M994.4 0h0M1003.2 0h0M1012 0h0M1020.8 0h0M1029.6 0h0M1082.4 0h0M1091.2 0h0M1100 0h0M1108.8 0h0M1117.6 0h0M0 8.8h0M8.8 8.8h0M52.8 8.8h0M61.6 8.8h0M70.4 8.8h0M79.2 8.8h0M88 8.8h0M96.8 8.8h0M105.6 8.8h0M114.4 8.8h0M132 8.8h0M140.8 8.8h0M149.6 8.8h0M193.6 8.8h0M211.2 8.8h0M220 8.8h0M228.8 8.8h0M237.6 8.8h0M246.4 8.8h0M308 8.8h0M316.8 8.8h0M325.6 8.8h0M334.4 8.8h0M343.2 8.8h0M352 8.8h0M360.8 8.8h0M369.6 8.8h0M378.4 8.8h0M387.2 8.8h0M396 8.8h0M404.8 8.8h0M413.6 8.8h0M422.4 8.8h0M598.4 8.8h0M607.2 8.8h0M616 8.8h0M624.8 8.8h0M633.6 8.8h0M642.4 8.8h0M792 8.8h0M800.8 8.8h0M809.6 8.8h0M818.4 8.8h0M827.2 8.8h0M836 8.8h0M844.8 8.8h0M853.6 8.8h0M862.4 8.8h0M871.2 8.8h0M880 8.8h0M888.8 8.8h0M897.6 8.8h0M906.4 8.8h0M915.2 8.8h0M924 8.8h0M932.8 8.8h0M941.6 8.8h0M950.4 8.8h0M959.2 8.8h0M968 8.8h0M976.8 8.8h0M985.6 8.8h0M994.4 8.8h0M1003.2 8.8h0M1012 8.8h0M1020.8 8.8h0M1029.6 8.8h0M1038.4 8.8h0M1047.2 8.8h0M1056 8.8h0M1064.8 8.8h0M1073.6 8.8h0M1082.4 8.8h0M1091.2 8.8h0M1100 8.8h0M1108.8 8.8h0M1117.6 8.8h0M1126.4 8.8h0M1135.2 8.8h0M1144 8.8h0M1152.8 8.8h0M0 17.6h0M8.8 17.6h0M17.6 17.6h0M26.4 17.6h0M35.2 17.6h0M44 17.6h0M52.8 17.6h0M61.6 17.6h0M70.4 17.6h0M79.2 17.6h0M88 17.6h0M96.8 17.6h0M105.6 17.6h0M114.4 17.6h0M123.2 17.6h0M132 17.6h0M140.8 17.6h0M149.6 17.6h0M158.4 17.6h0M167.2 17.6h0M176 17.6h0M184.8 17.6h0M193.6 17.6h0M211.2 17.6h0M228.8 17.6h0M237.6 17.6h0M246.4 17.6h0M255.2 17.6h0M308 17.6h0M316.8 17.6h0M325.6 17.6h0M334.4 17.6h0M343.2 17.6h0M352 17.6h0M360.8 17.6h0M369.6 17.6h0M378.4 17.6h0M387.2 17.6h0M580.8 17.6h0M589.6 17.6h0M598.4 17.6h0M607.2 17.6h0M616 17.6h0M624.8 17.6h0M633.6 17.6h0M642.4 17.6h0M651.2 17.6h0M660 17.6h0M668.8 17.6h0M677.6 17.6h0M721.6 17.6h0M730.4 17.6h0M739.2 17.6h0M748 17.6h0M756.8 17.6h0M765.6 17.6h0M774.4 17.6h0M783.2 17.6h0M792 17.6h0M800.8 17.6h0M809.6 17.6h0M827.2 17.6h0M836 17.6h0M844.8 17.6h0M853.6 17.6h0M862.4 17.6h0M871.2 17.6h0M880 17.6h0M888.8 17.6h0M897.6 17.6h0M906.4 17.6h0M915.2 17.6h0M924 17.6h0M932.8 17.6h0M941.6 17.6h0M950.4 17.6h0M959.2 17.6h0M968 17.6h0M976.8 17.6h0M985.6 17.6h0M994.4 17.6h0M1003.2 17.6h0M1012 17.6h0M1020.8 17.6h0M1029.6 17.6h0M1038.4 17.6h0M1047.2 17.6h0M1056 17.6h0M1064.8 17.6h0M1073.6 17.6h0M1082.4 17.6h0M1091.2 17.6h0M1100 17.6h0M1108.8 17.6h0M1117.6 17.6h0M1126.4 17.6h0M1135.2 17.6h0M1144 17.6h0M1152.8 17.6h0M0 26.4h0M8.8 26.4h0M17.6 26.4h0M26.4 26.4h0M35.2 26.4h0M44 26.4h0M52.8 26.4h0M61.6 26.4h0M70.4 26.4h0M79.2 26.4h0M88 26.4h0M96.8 26.4h0M105.6 26.4h0M114.4 26.4h0M123.2 26.4h0M132 26.4h0M140.8 26.4h0M149.6 26.4h0M158.4 26.4h0M167.2 26.4h0M176 26.4h0M228.8 26.4h0M237.6 26.4h0M246.4 26.4h0M264 26.4h0M316.8 26.4h0M325.6 26.4h0M334.4 26.4h0M343.2 26.4h0M352 26.4h0M431.2 26.4h0M440 26.4h0M448.8 26.4h0M457.6 26.4h0M572 26.4h0M580.8 26.4h0M589.6 26.4h0M598.4 26.4h0M624.8 26.4h0M633.6 26.4h0M642.4 26.4h0M651.2 26.4h0M686.4 26.4h0M695.2 26.4h0M704 26.4h0M712.8 26.4h0M721.6 26.4h0M730.4 26.4h0M739.2 26.4h0M748 26.4h0M756.8 26.4h0M765.6 26.4h0M774.4 26.4h0M783.2 26.4h0M792 26.4h0M800.8 26.4h0M809.6 26.4h0M818.4 26.4h0M827.2 26.4h0M836 26.4h0M844.8 26.4h0M853.6 26.4h0M862.4 26.4h0M871.2 26.4h0M880 26.4h0M888.8 26.4h0M897.6 26.4h0M906.4 26.4h0M915.2 26.4h0M924 26.4h0M932.8 26.4h0M941.6 26.4h0M950.4 26.4h0M959.2 26.4h0M968 26.4h0M976.8 26.4h0M985.6 26.4h0M994.4 26.4h0M1003.2 26.4h0M1012 26.4h0M1020.8 26.4h0M1029.6 26.4h0M1038.4 26.4h0M1047.2 26.4h0M1056 26.4h0M1064.8 26.4h0M1073.6 26.4h0M1082.4 26.4h0M1091.2 26.4h0M1100 26.4h0M1108.8 26.4h0M1117.6 26.4h0M1126.4 26.4h0M1135.2 26.4h0M1144 26.4h0M1152.8 26.4h0M0 35.2h0M8.8 35.2h0M17.6 35.2h0M26.4 35.2h0M35.2 35.2h0M44 35.2h0M52.8 35.2h0M61.6 35.2h0M70.4 35.2h0M79.2 35.2h0M88 35.2h0M96.8 35.2h0M105.6 35.2h0M114.4 35.2h0M123.2 35.2h0M132 35.2h0M140.8 35.2h0M149.6 35.2h0M237.6 35.2h0M246.4 35.2h0M255.2 35.2h0M316.8 35.2h0M325.6 35.2h0M334.4 35.2h0M343.2 35.2h0M352 35.2h0M554.4 35.2h0M563.2 35.2h0M572 35.2h0M580.8 35.2h0M589.6 35.2h0M607.2 35.2h0M616 35.2h0M624.8 35.2h0M633.6 35.2h0M642.4 35.2h0M651.2 35.2h0M660 35.2h0M668.8 35.2h0M677.6 35.2h0M686.4 35.2h0M695.2 35.2h0M704 35.2h0M712.8 35.2h0M721.6 35.2h0M730.4 35.2h0M739.2 35.2h0M748 35.2h0M756.8 35.2h0M765.6 35.2h0M774.4 35.2h0M783.2 35.2h0M792 35.2h0M800.8 35.2h0M809.6 35.2h0M818.4 35.2h0M827.2 35.2h0M836 35.2h0M844.8 35.2h0M853.6 35.2h0M862.4 35.2h0M871.2 35.2h0M880 35.2h0M888.8 35.2h0M897.6 35.2h0M906.4 35.2h0M915.2 35.2h0M924 35.2h0M932.8 35.2h0M941.6 35.2h0M950.4 35.2h0M959.2 35.2h0M968 35.2h0M976.8 35.2h0M985.6 35.2h0M994.4 35.2h0M1003.2 35.2h0M1012 35.2h0M1020.8 35.2h0M1029.6 35.2h0M1038.4 35.2h0M1047.2 35.2h0M1056 35.2h0M1064.8 35.2h0M1073.6 35.2h0M1082.4 35.2h0M1091.2 35.2h0M1100 35.2h0M1108.8 35.2h0M1117.6 35.2h0M1126.4 35.2h0M1135.2 35.2h0M1144 35.2h0M1152.8 35.2h0M0 44h0M8.8 44h0M17.6 44h0M26.4 44h0M35.2 44h0M44 44h0M52.8 44h0M61.6 44h0M70.4 44h0M79.2 44h0M88 44h0M96.8 44h0M105.6 44h0M114.4 44h0M123.2 44h0M132 44h0M140.8 44h0M211.2 44h0M220 44h0M228.8 44h0M237.6 44h0M334.4 44h0M343.2 44h0M545.6 44h0M554.4 44h0M563.2 44h0M572 44h0M580.8 44h0M589.6 44h0M607.2 44h0M616 44h0M624.8 44h0M633.6 44h0M642.4 44h0M651.2 44h0M660 44h0M668.8 44h0M677.6 44h0M686.4 44h0M695.2 44h0M704 44h0M712.8 44h0M721.6 44h0M730.4 44h0M739.2 44h0M748 44h0M756.8 44h0M765.6 44h0M774.4 44h0M783.2 44h0M792 44h0M800.8 44h0M809.6 44h0M818.4 44h0M827.2 44h0M836 44h0M844.8 44h0M853.6 44h0M862.4 44h0M871.2 44h0M880 44h0M888.8 44h0M897.6 44h0M906.4 44h0M915.2 44h0M924 44h0M932.8 44h0M941.6 44h0M950.4 44h0M959.2 44h0M968 44h0M976.8 44h0M985.6 44h0M994.4 44h0M1003.2 44h0M1012 44h0M1020.8 44h0M1029.6 44h0M1038.4 44h0M1047.2 44h0M1056 44h0M1064.8 44h0M1073.6 44h0M1082.4 44h0M1091.2 44h0M1100 44h0M1108.8 44h0M1117.6 44h0M1126.4 44h0M1135.2 44h0M1144 44h0M0 52.8h0M8.8 52.8h0M17.6 52.8h0M26.4 52.8h0M35.2 52.8h0M44 52.8h0M52.8 52.8h0M61.6 52.8h0M70.4 52.8h0M79.2 52.8h0M88 52.8h0M96.8 52.8h0M105.6 52.8h0M114.4 52.8h0M123.2 52.8h0M132 52.8h0M140.8 52.8h0M211.2 52.8h0M220 52.8h0M228.8 52.8h0M237.6 52.8h0M246.4 52.8h0M264 52.8h0M545.6 52.8h0M554.4 52.8h0M572 52.8h0M580.8 52.8h0M616 52.8h0M624.8 52.8h0M633.6 52.8h0M642.4 52.8h0M651.2 52.8h0M660 52.8h0M668.8 52.8h0M677.6 52.8h0M686.4 52.8h0M695.2 52.8h0M704 52.8h0M712.8 52.8h0M721.6 52.8h0M730.4 52.8h0M739.2 52.8h0M748 52.8h0M756.8 52.8h0M765.6 52.8h0M774.4 52.8h0M783.2 52.8h0M792 52.8h0M800.8 52.8h0M809.6 52.8h0M818.4 52.8h0M827.2 52.8h0M836 52.8h0M844.8 52.8h0M853.6 52.8h0M862.4 52.8h0M871.2 52.8h0M880 52.8h0M888.8 52.8h0M897.6 52.8h0M906.4 52.8h0M915.2 52.8h0M924 52.8h0M932.8 52.8h0M941.6 52.8h0M950.4 52.8h0M959.2 52.8h0M968 52.8h0M976.8 52.8h0M985.6 52.8h0M994.4 52.8h0M1003.2 52.8h0M1012 52.8h0M1020.8 52.8h0M1029.6 52.8h0M1038.4 52.8h0M1047.2 52.8h0M1056 52.8h0M1064.8 52.8h0M1073.6 52.8h0M1082.4 52.8h0M0 61.6h0M8.8 61.6h0M17.6 61.6h0M26.4 61.6h0M35.2 61.6h0M44 61.6h0M52.8 61.6h0M61.6 61.6h0M70.4 61.6h0M79.2 61.6h0M88 61.6h0M96.8 61.6h0M105.6 61.6h0M114.4 61.6h0M123.2 61.6h0M132 61.6h0M140.8 61.6h0M149.6 61.6h0M158.4 61.6h0M220 61.6h0M228.8 61.6h0M237.6 61.6h0M246.4 61.6h0M255.2 61.6h0M264 61.6h0M272.8 61.6h0M501.6 61.6h0M554.4 61.6h0M572 61.6h0M580.8 61.6h0M607.2 61.6h0M616 61.6h0M624.8 61.6h0M633.6 61.6h0M642.4 61.6h0M651.2 61.6h0M660 61.6h0M668.8 61.6h0M677.6 61.6h0M686.4 61.6h0M695.2 61.6h0M704 61.6h0M712.8 61.6h0M721.6 61.6h0M730.4 61.6h0M739.2 61.6h0M748 61.6h0M756.8 61.6h0M765.6 61.6h0M774.4 61.6h0M783.2 61.6h0M792 61.6h0M800.8 61.6h0M809.6 61.6h0M818.4 61.6h0M827.2 61.6h0M836 61.6h0M844.8 61.6h0M853.6 61.6h0M862.4 61.6h0M871.2 61.6h0M880 61.6h0M888.8 61.6h0M897.6 61.6h0M906.4 61.6h0M915.2 61.6h0M924 61.6h0M932.8 61.6h0M941.6 61.6h0M950.4 61.6h0M959.2 61.6h0M968 61.6h0M976.8 61.6h0M985.6 61.6h0M994.4 61.6h0M1003.2 61.6h0M1012 61.6h0M1020.8 61.6h0M1029.6 61.6h0M1038.4 61.6h0M1047.2 61.6h0M1056 61.6h0M1064.8 61.6h0M1144 61.6h0M1152.8 61.6h0M0 70.4h0M8.8 70.4h0M17.6 70.4h0M26.4 70.4h0M35.2 70.4h0M44 70.4h0M52.8 70.4h0M61.6 70.4h0M70.4 70.4h0M79.2 70.4h0M88 70.4h0M96.8 70.4h0M105.6 70.4h0M114.4 70.4h0M123.2 70.4h0M132 70.4h0M140.8 70.4h0M149.6 70.4h0M158.4 70.4h0M167.2 70.4h0M176 70.4h0M184.8 70.4h0M202.4 70.4h0M211.2 70.4h0M220 70.4h0M228.8 70.4h0M237.6 70.4h0M246.4 70.4h0M255.2 70.4h0M264 70.4h0M272.8 70.4h0M281.6 70.4h0M290.4 70.4h0M492.8 70.4h0M510.4 70.4h0M554.4 70.4h0M589.6 70.4h0M598.4 70.4h0M607.2 70.4h0M616 70.4h0M624.8 70.4h0M633.6 70.4h0M642.4 70.4h0M651.2 70.4h0M660 70.4h0M668.8 70.4h0M677.6 70.4h0M686.4 70.4h0M695.2 70.4h0M704 70.4h0M712.8 70.4h0M721.6 70.4h0M730.4 70.4h0M739.2 70.4h0M748 70.4h0M756.8 70.4h0M765.6 70.4h0M774.4 70.4h0M783.2 70.4h0M792 70.4h0M800.8 70.4h0M809.6 70.4h0M818.4 70.4h0M827.2 70.4h0M836 70.4h0M844.8 70.4h0M853.6 70.4h0M862.4 70.4h0M871.2 70.4h0M880 70.4h0M888.8 70.4h0M897.6 70.4h0M906.4 70.4h0M915.2 70.4h0M924 70.4h0M932.8 70.4h0M941.6 70.4h0M950.4 70.4h0M959.2 70.4h0M968 70.4h0M976.8 70.4h0M985.6 70.4h0M994.4 70.4h0M1003.2 70.4h0M1012 70.4h0M1020.8 70.4h0M1029.6 70.4h0M1038.4 70.4h0M1047.2 70.4h0M1056 70.4h0M1064.8 70.4h0M1144 70.4h0M1152.8 70.4h0M8.8 79.2h0M17.6 79.2h0M26.4 79.2h0M35.2 79.2h0M44 79.2h0M52.8 79.2h0M61.6 79.2h0M70.4 79.2h0M79.2 79.2h0M88 79.2h0M96.8 79.2h0M105.6 79.2h0M114.4 79.2h0M123.2 79.2h0M132 79.2h0M140.8 79.2h0M149.6 79.2h0M158.4 79.2h0M167.2 79.2h0M176 79.2h0M184.8 79.2h0M193.6 79.2h0M211.2 79.2h0M220 79.2h0M228.8 79.2h0M237.6 79.2h0M246.4 79.2h0M255.2 79.2h0M264 79.2h0M272.8 79.2h0M281.6 79.2h0M290.4 79.2h0M484 79.2h0M510.4 79.2h0M519.2 79.2h0M536.8 79.2h0M545.6 79.2h0M554.4 79.2h0M563.2 79.2h0M572 79.2h0M580.8 79.2h0M589.6 79.2h0M598.4 79.2h0M607.2 79.2h0M616 79.2h0M624.8 79.2h0M633.6 79.2h0M642.4 79.2h0M651.2 79.2h0M660 79.2h0M668.8 79.2h0M677.6 79.2h0M686.4 79.2h0M695.2 79.2h0M704 79.2h0M712.8 79.2h0M721.6 79.2h0M730.4 79.2h0M739.2 79.2h0M748 79.2h0M756.8 79.2h0M765.6 79.2h0M774.4 79.2h0M783.2 79.2h0M792 79.2h0M800.8 79.2h0M809.6 79.2h0M818.4 79.2h0M827.2 79.2h0M836 79.2h0M844.8 79.2h0M853.6 79.2h0M862.4 79.2h0M871.2 79.2h0M880 79.2h0M888.8 79.2h0M897.6 79.2h0M906.4 79.2h0M915.2 79.2h0M924 79.2h0M932.8 79.2h0M941.6 79.2h0M950.4 79.2h0M959.2 79.2h0M968 79.2h0M976.8 79.2h0M985.6 79.2h0M994.4 79.2h0M1003.2 79.2h0M1012 79.2h0M1020.8 79.2h0M1029.6 79.2h0M1038.4 79.2h0M1047.2 79.2h0M1056 79.2h0M1064.8 79.2h0M1073.6 79.2h0M1082.4 79.2h0M1091.2 79.2h0M1152.8 79.2h0M8.8 88h0M17.6 88h0M26.4 88h0M35.2 88h0M44 88h0M52.8 88h0M61.6 88h0M70.4 88h0M79.2 88h0M88 88h0M96.8 88h0M105.6 88h0M114.4 88h0M123.2 88h0M132 88h0M140.8 88h0M149.6 88h0M158.4 88h0M167.2 88h0M176 88h0M184.8 88h0M193.6 88h0M202.4 88h0M211.2 88h0M220 88h0M228.8 88h0M237.6 88h0M246.4 88h0M290.4 88h0M528 88h0M536.8 88h0M545.6 88h0M554.4 88h0M563.2 88h0M572 88h0M580.8 88h0M589.6 88h0M598.4 88h0M607.2 88h0M616 88h0M624.8 88h0M633.6 88h0M642.4 88h0M651.2 88h0M660 88h0M668.8 88h0M677.6 88h0M686.4 88h0M695.2 88h0M704 88h0M712.8 88h0M721.6 88h0M730.4 88h0M739.2 88h0M748 88h0M756.8 88h0M765.6 88h0M774.4 88h0M783.2 88h0M792 88h0M800.8 88h0M809.6 88h0M818.4 88h0M827.2 88h0M836 88h0M844.8 88h0M853.6 88h0M862.4 88h0M871.2 88h0M880 88h0M888.8 88h0M897.6 88h0M906.4 88h0M915.2 88h0M924 88h0M932.8 88h0M941.6 88h0M950.4 88h0M959.2 88h0M968 88h0M976.8 88h0M985.6 88h0M994.4 88h0M1003.2 88h0M1012 88h0M1020.8 88h0M1029.6 88h0M1038.4 88h0M1047.2 88h0M1056 88h0M1064.8 88h0M1073.6 88h0M1091.2 88h0M26.4 96.8h0M35.2 96.8h0M44 96.8h0M52.8 96.8h0M61.6 96.8h0M70.4 96.8h0M79.2 96.8h0M88 96.8h0M96.8 96.8h0M105.6 96.8h0M114.4 96.8h0M123.2 96.8h0M132 96.8h0M140.8 96.8h0M149.6 96.8h0M158.4 96.8h0M167.2 96.8h0M176 96.8h0M184.8 96.8h0M193.6 96.8h0M202.4 96.8h0M211.2 96.8h0M220 96.8h0M228.8 96.8h0M237.6 96.8h0M246.4 96.8h0M255.2 96.8h0M290.4 96.8h0M299.2 96.8h0M308 96.8h0M510.4 96.8h0M519.2 96.8h0M528 96.8h0M536.8 96.8h0M545.6 96.8h0M554.4 96.8h0M563.2 96.8h0M572 96.8h0M580.8 96.8h0M589.6 96.8h0M598.4 96.8h0M607.2 96.8h0M616 96.8h0M624.8 96.8h0M633.6 96.8h0M642.4 96.8h0M651.2 96.8h0M660 96.8h0M668.8 96.8h0M677.6 96.8h0M686.4 96.8h0M695.2 96.8h0M704 96.8h0M712.8 96.8h0M721.6 96.8h0M730.4 96.8h0M739.2 96.8h0M748 96.8h0M756.8 96.8h0M765.6 96.8h0M774.4 96.8h0M783.2 96.8h0M792 96.8h0M800.8 96.8h0M809.6 96.8h0M818.4 96.8h0M827.2 96.8h0M836 96.8h0M844.8 96.8h0M853.6 96.8h0M862.4 96.8h0M871.2 96.8h0M880 96.8h0M888.8 96.8h0M897.6 96.8h0M906.4 96.8h0M915.2 96.8h0M924 96.8h0M932.8 96.8h0M941.6 96.8h0M950.4 96.8h0M959.2 96.8h0M968 96.8h0M976.8 96.8h0M985.6 96.8h0M994.4 96.8h0M1003.2 96.8h0M1012 96.8h0M1020.8 96.8h0M1029.6 96.8h0M1038.4 96.8h0M1047.2 96.8h0M1056 96.8h0M1064.8 96.8h0M1073.6 96.8h0M26.4 105.6h0M35.2 105.6h0M44 105.6h0M52.8 105.6h0M61.6 105.6h0M70.4 105.6h0M79.2 105.6h0M88 105.6h0M96.8 105.6h0M105.6 105.6h0M114.4 105.6h0M123.2 105.6h0M132 105.6h0M140.8 105.6h0M149.6 105.6h0M158.4 105.6h0M167.2 105.6h0M176 105.6h0M184.8 105.6h0M193.6 105.6h0M202.4 105.6h0M211.2 105.6h0M220 105.6h0M228.8 105.6h0M237.6 105.6h0M246.4 105.6h0M255.2 105.6h0M264 105.6h0M272.8 105.6h0M519.2 105.6h0M528 105.6h0M536.8 105.6h0M545.6 105.6h0M554.4 105.6h0M563.2 105.6h0M580.8 105.6h0M589.6 105.6h0M598.4 105.6h0M607.2 105.6h0M616 105.6h0M624.8 105.6h0M633.6 105.6h0M660 105.6h0M677.6 105.6h0M686.4 105.6h0M695.2 105.6h0M704 105.6h0M739.2 105.6h0M748 105.6h0M756.8 105.6h0M765.6 105.6h0M774.4 105.6h0M783.2 105.6h0M792 105.6h0M800.8 105.6h0M809.6 105.6h0M818.4 105.6h0M827.2 105.6h0M836 105.6h0M844.8 105.6h0M853.6 105.6h0M862.4 105.6h0M871.2 105.6h0M880 105.6h0M888.8 105.6h0M897.6 105.6h0M906.4 105.6h0M915.2 105.6h0M924 105.6h0M932.8 105.6h0M941.6 105.6h0M950.4 105.6h0M959.2 105.6h0M968 105.6h0M976.8 105.6h0M985.6 105.6h0M994.4 105.6h0M1003.2 105.6h0M1012 105.6h0M1020.8 105.6h0M1029.6 105.6h0M1038.4 105.6h0M1047.2 105.6h0M1056 105.6h0M1064.8 105.6h0M26.4 114.4h0M35.2 114.4h0M44 114.4h0M52.8 114.4h0M61.6 114.4h0M70.4 114.4h0M79.2 114.4h0M88 114.4h0M96.8 114.4h0M105.6 114.4h0M114.4 114.4h0M123.2 114.4h0M132 114.4h0M140.8 114.4h0M149.6 114.4h0M158.4 114.4h0M167.2 114.4h0M176 114.4h0M184.8 114.4h0M193.6 114.4h0M202.4 114.4h0M211.2 114.4h0M220 114.4h0M228.8 114.4h0M237.6 114.4h0M492.8 114.4h0M501.6 114.4h0M510.4 114.4h0M519.2 114.4h0M528 114.4h0M536.8 114.4h0M545.6 114.4h0M563.2 114.4h0M572 114.4h0M589.6 114.4h0M598.4 114.4h0M607.2 114.4h0M616 114.4h0M624.8 114.4h0M686.4 114.4h0M695.2 114.4h0M704 114.4h0M730.4 114.4h0M739.2 114.4h0M748 114.4h0M756.8 114.4h0M765.6 114.4h0M774.4 114.4h0M783.2 114.4h0M792 114.4h0M800.8 114.4h0M809.6 114.4h0M818.4 114.4h0M827.2 114.4h0M836 114.4h0M844.8 114.4h0M853.6 114.4h0M862.4 114.4h0M871.2 114.4h0M880 114.4h0M888.8 114.4h0M897.6 114.4h0M906.4 114.4h0M915.2 114.4h0M924 114.4h0M932.8 114.4h0M941.6 114.4h0M950.4 114.4h0M959.2 114.4h0M968 114.4h0M976.8 114.4h0M985.6 114.4h0M994.4 114.4h0M1003.2 114.4h0M1012 114.4h0M1020.8 114.4h0M1029.6 114.4h0M1038.4 114.4h0M1047.2 114.4h0M1056 114.4h0M1091.2 114.4h0M1100 114.4h0M26.4 123.2h0M35.2 123.2h0M44 123.2h0M52.8 123.2h0M61.6 123.2h0M70.4 123.2h0M79.2 123.2h0M88 123.2h0M96.8 123.2h0M105.6 123.2h0M114.4 123.2h0M123.2 123.2h0M132 123.2h0M140.8 123.2h0M149.6 123.2h0M158.4 123.2h0M167.2 123.2h0M176 123.2h0M184.8 123.2h0M193.6 123.2h0M202.4 123.2h0M211.2 123.2h0M220 123.2h0M492.8 123.2h0M501.6 123.2h0M510.4 123.2h0M519.2 123.2h0M580.8 123.2h0M598.4 123.2h0M607.2 123.2h0M616 123.2h0M624.8 123.2h0M633.6 123.2h0M651.2 123.2h0M660 123.2h0M668.8 123.2h0M686.4 123.2h0M695.2 123.2h0M704 123.2h0M712.8 123.2h0M739.2 123.2h0M748 123.2h0M756.8 123.2h0M765.6 123.2h0M774.4 123.2h0M783.2 123.2h0M792 123.2h0M800.8 123.2h0M809.6 123.2h0M818.4 123.2h0M827.2 123.2h0M836 123.2h0M844.8 123.2h0M853.6 123.2h0M862.4 123.2h0M871.2 123.2h0M880 123.2h0M888.8 123.2h0M897.6 123.2h0M906.4 123.2h0M915.2 123.2h0M924 123.2h0M932.8 123.2h0M941.6 123.2h0M950.4 123.2h0M959.2 123.2h0M968 123.2h0M976.8 123.2h0M985.6 123.2h0M994.4 123.2h0M1003.2 123.2h0M1012 123.2h0M1020.8 123.2h0M1029.6 123.2h0M1038.4 123.2h0M1082.4 123.2h0M26.4 132h0M35.2 132h0M44 132h0M52.8 132h0M61.6 132h0M70.4 132h0M79.2 132h0M88 132h0M96.8 132h0M105.6 132h0M114.4 132h0M123.2 132h0M132 132h0M140.8 132h0M149.6 132h0M158.4 132h0M167.2 132h0M176 132h0M184.8 132h0M193.6 132h0M202.4 132h0M211.2 132h0M484 132h0M492.8 132h0M501.6 132h0M510.4 132h0M519.2 132h0M607.2 132h0M633.6 132h0M642.4 132h0M651.2 132h0M660 132h0M668.8 132h0M677.6 132h0M686.4 132h0M695.2 132h0M704 132h0M712.8 132h0M739.2 132h0M748 132h0M756.8 132h0M765.6 132h0M774.4 132h0M783.2 132h0M792 132h0M800.8 132h0M809.6 132h0M818.4 132h0M827.2 132h0M836 132h0M844.8 132h0M853.6 132h0M862.4 132h0M871.2 132h0M880 132h0M888.8 132h0M897.6 132h0M906.4 132h0M915.2 132h0M924 132h0M932.8 132h0M941.6 132h0M950.4 132h0M959.2 132h0M968 132h0M976.8 132h0M985.6 132h0M1029.6 132h0M1082.4 132h0M35.2 140.8h0M44 140.8h0M52.8 140.8h0M61.6 140.8h0M70.4 140.8h0M79.2 140.8h0M88 140.8h0M96.8 140.8h0M105.6 140.8h0M114.4 140.8h0M123.2 140.8h0M132 140.8h0M140.8 140.8h0M149.6 140.8h0M158.4 140.8h0M167.2 140.8h0M176 140.8h0M184.8 140.8h0M193.6 140.8h0M202.4 140.8h0M211.2 140.8h0M501.6 140.8h0M510.4 140.8h0M536.8 140.8h0M545.6 140.8h0M554.4 140.8h0M563.2 140.8h0M607.2 140.8h0M633.6 140.8h0M642.4 140.8h0M651.2 140.8h0M660 140.8h0M668.8 140.8h0M677.6 140.8h0M686.4 140.8h0M695.2 140.8h0M704 140.8h0M712.8 140.8h0M721.6 140.8h0M739.2 140.8h0M748 140.8h0M756.8 140.8h0M765.6 140.8h0M774.4 140.8h0M783.2 140.8h0M792 140.8h0M800.8 140.8h0M809.6 140.8h0M818.4 140.8h0M827.2 140.8h0M836 140.8h0M844.8 140.8h0M853.6 140.8h0M862.4 140.8h0M871.2 140.8h0M880 140.8h0M888.8 140.8h0M897.6 140.8h0M906.4 140.8h0M915.2 140.8h0M924 140.8h0M932.8 140.8h0M941.6 140.8h0M950.4 140.8h0M959.2 140.8h0M968 140.8h0M976.8 140.8h0M985.6 140.8h0M994.4 140.8h0M1003.2 140.8h0M1029.6 140.8h0M1073.6 140.8h0M1082.4 140.8h0M44 149.6h0M52.8 149.6h0M61.6 149.6h0M70.4 149.6h0M79.2 149.6h0M88 149.6h0M96.8 149.6h0M105.6 149.6h0M114.4 149.6h0M123.2 149.6h0M132 149.6h0M140.8 149.6h0M149.6 149.6h0M158.4 149.6h0M167.2 149.6h0M176 149.6h0M184.8 149.6h0M193.6 149.6h0M202.4 149.6h0M211.2 149.6h0M501.6 149.6h0M510.4 149.6h0M519.2 149.6h0M528 149.6h0M536.8 149.6h0M545.6 149.6h0M554.4 149.6h0M668.8 149.6h0M677.6 149.6h0M686.4 149.6h0M695.2 149.6h0M704 149.6h0M712.8 149.6h0M721.6 149.6h0M730.4 149.6h0M739.2 149.6h0M748 149.6h0M756.8 149.6h0M765.6 149.6h0M774.4 149.6h0M783.2 149.6h0M792 149.6h0M800.8 149.6h0M809.6 149.6h0M818.4 149.6h0M827.2 149.6h0M836 149.6h0M844.8 149.6h0M853.6 149.6h0M862.4 149.6h0M871.2 149.6h0M880 149.6h0M888.8 149.6h0M897.6 149.6h0M906.4 149.6h0M915.2 149.6h0M924 149.6h0M932.8 149.6h0M941.6 149.6h0M950.4 149.6h0M959.2 149.6h0M968 149.6h0M976.8 149.6h0M985.6 149.6h0M994.4 149.6h0M1029.6 149.6h0M1047.2 149.6h0M1056 149.6h0M1064.8 149.6h0M52.8 158.4h0M61.6 158.4h0M70.4 158.4h0M79.2 158.4h0M88 158.4h0M96.8 158.4h0M105.6 158.4h0M114.4 158.4h0M123.2 158.4h0M132 158.4h0M140.8 158.4h0M149.6 158.4h0M158.4 158.4h0M167.2 158.4h0M176 158.4h0M184.8 158.4h0M193.6 158.4h0M484 158.4h0M492.8 158.4h0M501.6 158.4h0M510.4 158.4h0M519.2 158.4h0M528 158.4h0M536.8 158.4h0M545.6 158.4h0M554.4 158.4h0M563.2 158.4h0M572 158.4h0M607.2 158.4h0M660 158.4h0M668.8 158.4h0M677.6 158.4h0M686.4 158.4h0M695.2 158.4h0M704 158.4h0M712.8 158.4h0M721.6 158.4h0M730.4 158.4h0M739.2 158.4h0M748 158.4h0M756.8 158.4h0M765.6 158.4h0M774.4 158.4h0M783.2 158.4h0M792 158.4h0M800.8 158.4h0M809.6 158.4h0M818.4 158.4h0M827.2 158.4h0M836 158.4h0M844.8 158.4h0M853.6 158.4h0M862.4 158.4h0M871.2 158.4h0M880 158.4h0M888.8 158.4h0M897.6 158.4h0M906.4 158.4h0M915.2 158.4h0M924 158.4h0M932.8 158.4h0M941.6 158.4h0M950.4 158.4h0M959.2 158.4h0M968 158.4h0M976.8 158.4h0M985.6 158.4h0M994.4 158.4h0M1003.2 158.4h0M70.4 167.2h0M79.2 167.2h0M88 167.2h0M96.8 167.2h0M105.6 167.2h0M114.4 167.2h0M123.2 167.2h0M132 167.2h0M140.8 167.2h0M149.6 167.2h0M158.4 167.2h0M184.8 167.2h0M193.6 167.2h0M484 167.2h0M492.8 167.2h0M501.6 167.2h0M510.4 167.2h0M519.2 167.2h0M528 167.2h0M536.8 167.2h0M545.6 167.2h0M554.4 167.2h0M563.2 167.2h0M572 167.2h0M580.8 167.2h0M589.6 167.2h0M598.4 167.2h0M607.2 167.2h0M616 167.2h0M624.8 167.2h0M633.6 167.2h0M642.4 167.2h0M651.2 167.2h0M660 167.2h0M668.8 167.2h0M677.6 167.2h0M686.4 167.2h0M695.2 167.2h0M704 167.2h0M712.8 167.2h0M721.6 167.2h0M730.4 167.2h0M739.2 167.2h0M748 167.2h0M756.8 167.2h0M765.6 167.2h0M774.4 167.2h0M783.2 167.2h0M792 167.2h0M800.8 167.2h0M809.6 167.2h0M818.4 167.2h0M827.2 167.2h0M836 167.2h0M844.8 167.2h0M853.6 167.2h0M862.4 167.2h0M871.2 167.2h0M880 167.2h0M888.8 167.2h0M897.6 167.2h0M906.4 167.2h0M915.2 167.2h0M924 167.2h0M932.8 167.2h0M941.6 167.2h0M950.4 167.2h0M959.2 167.2h0M968 167.2h0M976.8 167.2h0M985.6 167.2h0M994.4 167.2h0M1003.2 167.2h0M79.2 176h0M88 176h0M96.8 176h0M105.6 176h0M114.4 176h0M123.2 176h0M132 176h0M193.6 176h0M475.2 176h0M484 176h0M492.8 176h0M501.6 176h0M510.4 176h0M519.2 176h0M528 176h0M536.8 176h0M545.6 176h0M554.4 176h0M563.2 176h0M572 176h0M580.8 176h0M589.6 176h0M598.4 176h0M607.2 176h0M616 176h0M624.8 176h0M633.6 176h0M642.4 176h0M651.2 176h0M668.8 176h0M677.6 176h0M686.4 176h0M695.2 176h0M704 176h0M712.8 176h0M730.4 176h0M739.2 176h0M748 176h0M756.8 176h0M765.6 176h0M774.4 176h0M783.2 176h0M792 176h0M800.8 176h0M809.6 176h0M818.4 176h0M827.2 176h0M836 176h0M844.8 176h0M853.6 176h0M862.4 176h0M871.2 176h0M880 176h0M888.8 176h0M897.6 176h0M906.4 176h0M915.2 176h0M924 176h0M932.8 176h0M941.6 176h0M950.4 176h0M959.2 176h0M968 176h0M976.8 176h0M985.6 176h0M994.4 176h0M1003.2 176h0M88 184.8h0M96.8 184.8h0M105.6 184.8h0M114.4 184.8h0M123.2 184.8h0M466.4 184.8h0M475.2 184.8h0M484 184.8h0M492.8 184.8h0M501.6 184.8h0M510.4 184.8h0M519.2 184.8h0M528 184.8h0M536.8 184.8h0M545.6 184.8h0M554.4 184.8h0M563.2 184.8h0M572 184.8h0M580.8 184.8h0M589.6 184.8h0M598.4 184.8h0M607.2 184.8h0M616 184.8h0M624.8 184.8h0M633.6 184.8h0M642.4 184.8h0M651.2 184.8h0M668.8 184.8h0M677.6 184.8h0M686.4 184.8h0M695.2 184.8h0M704 184.8h0M712.8 184.8h0M756.8 184.8h0M765.6 184.8h0M774.4 184.8h0M783.2 184.8h0M792 184.8h0M800.8 184.8h0M809.6 184.8h0M818.4 184.8h0M827.2 184.8h0M836 184.8h0M844.8 184.8h0M853.6 184.8h0M862.4 184.8h0M871.2 184.8h0M880 184.8h0M888.8 184.8h0M897.6 184.8h0M906.4 184.8h0M915.2 184.8h0M924 184.8h0M932.8 184.8h0M941.6 184.8h0M950.4 184.8h0M959.2 184.8h0M968 184.8h0M976.8 184.8h0M985.6 184.8h0M994.4 184.8h0M79.2 193.6h0M96.8 193.6h0M105.6 193.6h0M114.4 193.6h0M123.2 193.6h0M457.6 193.6h0M466.4 193.6h0M475.2 193.6h0M484 193.6h0M492.8 193.6h0M501.6 193.6h0M510.4 193.6h0M519.2 193.6h0M528 193.6h0M536.8 193.6h0M545.6 193.6h0M554.4 193.6h0M563.2 193.6h0M572 193.6h0M580.8 193.6h0M589.6 193.6h0M598.4 193.6h0M607.2 193.6h0M616 193.6h0M624.8 193.6h0M633.6 193.6h0M642.4 193.6h0M651.2 193.6h0M660 193.6h0M677.6 193.6h0M686.4 193.6h0M695.2 193.6h0M704 193.6h0M712.8 193.6h0M721.6 193.6h0M730.4 193.6h0M739.2 193.6h0M748 193.6h0M800.8 193.6h0M809.6 193.6h0M818.4 193.6h0M827.2 193.6h0M836 193.6h0M844.8 193.6h0M853.6 193.6h0M862.4 193.6h0M871.2 193.6h0M880 193.6h0M888.8 193.6h0M897.6 193.6h0M906.4 193.6h0M915.2 193.6h0M924 193.6h0M932.8 193.6h0M941.6 193.6h0M950.4 193.6h0M959.2 193.6h0M968 193.6h0M976.8 193.6h0M985.6 193.6h0M1003.2 193.6h0M105.6 202.4h0M114.4 202.4h0M123.2 202.4h0M167.2 202.4h0M211.2 202.4h0M457.6 202.4h0M466.4 202.4h0M475.2 202.4h0M484 202.4h0M492.8 202.4h0M501.6 202.4h0M510.4 202.4h0M519.2 202.4h0M528 202.4h0M536.8 202.4h0M545.6 202.4h0M554.4 202.4h0M563.2 202.4h0M572 202.4h0M580.8 202.4h0M589.6 202.4h0M598.4 202.4h0M607.2 202.4h0M616 202.4h0M624.8 202.4h0M633.6 202.4h0M642.4 202.4h0M651.2 202.4h0M660 202.4h0M677.6 202.4h0M686.4 202.4h0M695.2 202.4h0M704 202.4h0M712.8 202.4h0M721.6 202.4h0M730.4 202.4h0M739.2 202.4h0M748 202.4h0M756.8 202.4h0M800.8 202.4h0M809.6 202.4h0M818.4 202.4h0M827.2 202.4h0M836 202.4h0M844.8 202.4h0M853.6 202.4h0M862.4 202.4h0M888.8 202.4h0M897.6 202.4h0M906.4 202.4h0M915.2 202.4h0M924 202.4h0M932.8 202.4h0M941.6 202.4h0M950.4 202.4h0M105.6 211.2h0M114.4 211.2h0M123.2 211.2h0M132 211.2h0M158.4 211.2h0M167.2 211.2h0M237.6 211.2h0M457.6 211.2h0M466.4 211.2h0M475.2 211.2h0M484 211.2h0M492.8 211.2h0M501.6 211.2h0M510.4 211.2h0M519.2 211.2h0M528 211.2h0M536.8 211.2h0M545.6 211.2h0M554.4 211.2h0M563.2 211.2h0M572 211.2h0M580.8 211.2h0M589.6 211.2h0M598.4 211.2h0M607.2 211.2h0M616 211.2h0M624.8 211.2h0M633.6 211.2h0M642.4 211.2h0M651.2 211.2h0M660 211.2h0M668.8 211.2h0M686.4 211.2h0M695.2 211.2h0M704 211.2h0M712.8 211.2h0M721.6 211.2h0M730.4 211.2h0M739.2 211.2h0M748 211.2h0M818.4 211.2h0M827.2 211.2h0M836 211.2h0M844.8 211.2h0M853.6 211.2h0M897.6 211.2h0M906.4 211.2h0M915.2 211.2h0M924 211.2h0M932.8 211.2h0M941.6 211.2h0M959.2 211.2h0M123.2 220h0M132 220h0M140.8 220h0M149.6 220h0M158.4 220h0M457.6 220h0M466.4 220h0M475.2 220h0M484 220h0M492.8 220h0M501.6 220h0M510.4 220h0M519.2 220h0M528 220h0M536.8 220h0M545.6 220h0M554.4 220h0M563.2 220h0M572 220h0M580.8 220h0M589.6 220h0M598.4 220h0M607.2 220h0M616 220h0M624.8 220h0M633.6 220h0M642.4 220h0M651.2 220h0M660 220h0M668.8 220h0M695.2 220h0M704 220h0M712.8 220h0M721.6 220h0M730.4 220h0M739.2 220h0M818.4 220h0M827.2 220h0M836 220h0M844.8 220h0M906.4 220h0M915.2 220h0M924 220h0M932.8 220h0M941.6 220h0M1003.2 220h0M158.4 228.8h0M167.2 228.8h0M176 228.8h0M184.8 228.8h0M457.6 228.8h0M466.4 228.8h0M475.2 228.8h0M484 228.8h0M492.8 228.8h0M501.6 228.8h0M510.4 228.8h0M519.2 228.8h0M528 228.8h0M536.8 228.8h0M545.6 228.8h0M554.4 228.8h0M563.2 228.8h0M572 228.8h0M580.8 228.8h0M589.6 228.8h0M598.4 228.8h0M607.2 228.8h0M616 228.8h0M624.8 228.8h0M633.6 228.8h0M642.4 228.8h0M651.2 228.8h0M660 228.8h0M668.8 228.8h0M677.6 228.8h0M695.2 228.8h0M704 228.8h0M712.8 228.8h0M818.4 228.8h0M827.2 228.8h0M836 228.8h0M915.2 228.8h0M924 228.8h0M932.8 228.8h0M941.6 228.8h0M950.4 228.8h0M1003.2 228.8h0M176 237.6h0M184.8 237.6h0M457.6 237.6h0M466.4 237.6h0M475.2 237.6h0M484 237.6h0M492.8 237.6h0M501.6 237.6h0M510.4 237.6h0M519.2 237.6h0M528 237.6h0M536.8 237.6h0M545.6 237.6h0M554.4 237.6h0M563.2 237.6h0M572 237.6h0M580.8 237.6h0M589.6 237.6h0M598.4 237.6h0M607.2 237.6h0M616 237.6h0M624.8 237.6h0M633.6 237.6h0M642.4 237.6h0M651.2 237.6h0M660 237.6h0M668.8 237.6h0M677.6 237.6h0M686.4 237.6h0M827.2 237.6h0M836 237.6h0M915.2 237.6h0M932.8 237.6h0M941.6 237.6h0M950.4 237.6h0M184.8 246.4h0M220 246.4h0M228.8 246.4h0M237.6 246.4h0M246.4 246.4h0M255.2 246.4h0M264 246.4h0M466.4 246.4h0M475.2 246.4h0M484 246.4h0M492.8 246.4h0M501.6 246.4h0M510.4 246.4h0M519.2 246.4h0M528 246.4h0M536.8 246.4h0M545.6 246.4h0M554.4 246.4h0M563.2 246.4h0M572 246.4h0M580.8 246.4h0M589.6 246.4h0M598.4 246.4h0M607.2 246.4h0M616 246.4h0M624.8 246.4h0M633.6 246.4h0M642.4 246.4h0M651.2 246.4h0M660 246.4h0M668.8 246.4h0M677.6 246.4h0M686.4 246.4h0M695.2 246.4h0M704 246.4h0M712.8 246.4h0M721.6 246.4h0M827.2 246.4h0M836 246.4h0M915.2 246.4h0M941.6 246.4h0M1012 246.4h0M1020.8 246.4h0M193.6 255.2h0M211.2 255.2h0M220 255.2h0M228.8 255.2h0M237.6 255.2h0M246.4 255.2h0M255.2 255.2h0M264 255.2h0M272.8 255.2h0M281.6 255.2h0M475.2 255.2h0M484 255.2h0M492.8 255.2h0M501.6 255.2h0M510.4 255.2h0M519.2 255.2h0M528 255.2h0M536.8 255.2h0M545.6 255.2h0M554.4 255.2h0M563.2 255.2h0M572 255.2h0M580.8 255.2h0M589.6 255.2h0M598.4 255.2h0M607.2 255.2h0M616 255.2h0M624.8 255.2h0M633.6 255.2h0M642.4 255.2h0M651.2 255.2h0M660 255.2h0M668.8 255.2h0M677.6 255.2h0M686.4 255.2h0M695.2 255.2h0M704 255.2h0M712.8 255.2h0M844.8 255.2h0M915.2 255.2h0M1012 255.2h0M1020.8 255.2h0M211.2 264h0M220 264h0M228.8 264h0M237.6 264h0M246.4 264h0M255.2 264h0M264 264h0M272.8 264h0M281.6 264h0M290.4 264h0M299.2 264h0M484 264h0M492.8 264h0M501.6 264h0M510.4 264h0M519.2 264h0M545.6 264h0M554.4 264h0M563.2 264h0M572 264h0M580.8 264h0M589.6 264h0M598.4 264h0M607.2 264h0M616 264h0M624.8 264h0M633.6 264h0M642.4 264h0M651.2 264h0M660 264h0M668.8 264h0M677.6 264h0M686.4 264h0M695.2 264h0M704 264h0M712.8 264h0M924 264h0M985.6 264h0M1020.8 264h0M220 272.8h0M228.8 272.8h0M237.6 272.8h0M246.4 272.8h0M255.2 272.8h0M264 272.8h0M272.8 272.8h0M281.6 272.8h0M290.4 272.8h0M299.2 272.8h0M308 272.8h0M563.2 272.8h0M572 272.8h0M580.8 272.8h0M589.6 272.8h0M598.4 272.8h0M607.2 272.8h0M616 272.8h0M624.8 272.8h0M633.6 272.8h0M642.4 272.8h0M651.2 272.8h0M660 272.8h0M668.8 272.8h0M677.6 272.8h0M686.4 272.8h0M695.2 272.8h0M704 272.8h0M906.4 272.8h0M915.2 272.8h0M924 272.8h0M932.8 272.8h0M976.8 272.8h0M985.6 272.8h0M211.2 281.6h0M220 281.6h0M228.8 281.6h0M237.6 281.6h0M246.4 281.6h0M255.2 281.6h0M264 281.6h0M272.8 281.6h0M281.6 281.6h0M290.4 281.6h0M299.2 281.6h0M308 281.6h0M316.8 281.6h0M563.2 281.6h0M572 281.6h0M580.8 281.6h0M589.6 281.6h0M598.4 281.6h0M607.2 281.6h0M616 281.6h0M624.8 281.6h0M633.6 281.6h0M642.4 281.6h0M651.2 281.6h0M660 281.6h0M668.8 281.6h0M677.6 281.6h0M686.4 281.6h0M695.2 281.6h0M915.2 281.6h0M924 281.6h0M932.8 281.6h0M959.2 281.6h0M968 281.6h0M976.8 281.6h0M985.6 281.6h0M202.4 290.4h0M211.2 290.4h0M220 290.4h0M228.8 290.4h0M237.6 290.4h0M246.4 290.4h0M255.2 290.4h0M264 290.4h0M272.8 290.4h0M281.6 290.4h0M290.4 290.4h0M299.2 290.4h0M308 290.4h0M316.8 290.4h0M563.2 290.4h0M572 290.4h0M580.8 290.4h0M589.6 290.4h0M598.4 290.4h0M607.2 290.4h0M616 290.4h0M624.8 290.4h0M633.6 290.4h0M642.4 290.4h0M651.2 290.4h0M660 290.4h0M668.8 290.4h0M677.6 290.4h0M686.4 290.4h0M924 290.4h0M932.8 290.4h0M959.2 290.4h0M968 290.4h0M976.8 290.4h0M985.6 290.4h0M202.4 299.2h0M211.2 299.2h0M220 299.2h0M228.8 299.2h0M237.6 299.2h0M246.4 299.2h0M255.2 299.2h0M264 299.2h0M272.8 299.2h0M281.6 299.2h0M290.4 299.2h0M299.2 299.2h0M308 299.2h0M316.8 299.2h0M325.6 299.2h0M334.4 299.2h0M343.2 299.2h0M352 299.2h0M563.2 299.2h0M572 299.2h0M580.8 299.2h0M589.6 299.2h0M598.4 299.2h0M607.2 299.2h0M616 299.2h0M624.8 299.2h0M633.6 299.2h0M642.4 299.2h0M651.2 299.2h0M660 299.2h0M668.8 299.2h0M677.6 299.2h0M932.8 299.2h0M941.6 299.2h0M968 299.2h0M976.8 299.2h0M985.6 299.2h0M1056 299.2h0M1064.8 299.2h0M1073.6 299.2h0M1082.4 299.2h0M202.4 308h0M211.2 308h0M220 308h0M228.8 308h0M237.6 308h0M246.4 308h0M255.2 308h0M264 308h0M272.8 308h0M281.6 308h0M290.4 308h0M299.2 308h0M308 308h0M316.8 308h0M325.6 308h0M334.4 308h0M343.2 308h0M352 308h0M360.8 308h0M369.6 308h0M572 308h0M580.8 308h0M589.6 308h0M598.4 308h0M607.2 308h0M616 308h0M624.8 308h0M633.6 308h0M642.4 308h0M651.2 308h0M660 308h0M668.8 308h0M941.6 308h0M1012 308h0M1073.6 308h0M1082.4 308h0M1091.2 308h0M1100 308h0M1126.4 308h0M202.4 316.8h0M211.2 316.8h0M220 316.8h0M228.8 316.8h0M237.6 316.8h0M246.4 316.8h0M255.2 316.8h0M264 316.8h0M272.8 316.8h0M281.6 316.8h0M290.4 316.8h0M299.2 316.8h0M308 316.8h0M316.8 316.8h0M325.6 316.8h0M334.4 316.8h0M343.2 316.8h0M352 316.8h0M360.8 316.8h0M369.6 316.8h0M378.4 316.8h0M572 316.8h0M580.8 316.8h0M589.6 316.8h0M598.4 316.8h0M607.2 316.8h0M616 316.8h0M624.8 316.8h0M633.6 316.8h0M642.4 316.8h0M651.2 316.8h0M660 316.8h0M668.8 316.8h0M677.6 316.8h0M950.4 316.8h0M959.2 316.8h0M968 316.8h0M1082.4 316.8h0M1091.2 316.8h0M1100 316.8h0M211.2 325.6h0M220 325.6h0M228.8 325.6h0M237.6 325.6h0M246.4 325.6h0M255.2 325.6h0M264 325.6h0M272.8 325.6h0M281.6 325.6h0M290.4 325.6h0M299.2 325.6h0M308 325.6h0M316.8 325.6h0M325.6 325.6h0M334.4 325.6h0M343.2 325.6h0M352 325.6h0M360.8 325.6h0M369.6 325.6h0M572 325.6h0M580.8 325.6h0M589.6 325.6h0M598.4 325.6h0M607.2 325.6h0M616 325.6h0M624.8 325.6h0M633.6 325.6h0M642.4 325.6h0M651.2 325.6h0M660 325.6h0M668.8 325.6h0M677.6 325.6h0M1108.8 325.6h0M211.2 334.4h0M220 334.4h0M228.8 334.4h0M237.6 334.4h0M246.4 334.4h0M255.2 334.4h0M264 334.4h0M272.8 334.4h0M281.6 334.4h0M290.4 334.4h0M299.2 334.4h0M308 334.4h0M316.8 334.4h0M325.6 334.4h0M334.4 334.4h0M343.2 334.4h0M352 334.4h0M360.8 334.4h0M369.6 334.4h0M580.8 334.4h0M589.6 334.4h0M598.4 334.4h0M607.2 334.4h0M616 334.4h0M624.8 334.4h0M633.6 334.4h0M642.4 334.4h0M651.2 334.4h0M660 334.4h0M668.8 334.4h0M677.6 334.4h0M1091.2 334.4h0M220 343.2h0M228.8 343.2h0M237.6 343.2h0M246.4 343.2h0M255.2 343.2h0M264 343.2h0M272.8 343.2h0M281.6 343.2h0M290.4 343.2h0M299.2 343.2h0M308 343.2h0M316.8 343.2h0M325.6 343.2h0M334.4 343.2h0M343.2 343.2h0M352 343.2h0M360.8 343.2h0M572 343.2h0M580.8 343.2h0M589.6 343.2h0M598.4 343.2h0M607.2 343.2h0M616 343.2h0M624.8 343.2h0M633.6 343.2h0M642.4 343.2h0M651.2 343.2h0M660 343.2h0M668.8 343.2h0M677.6 343.2h0M712.8 343.2h0M1047.2 343.2h0M1056 343.2h0M1091.2 343.2h0M228.8 352h0M237.6 352h0M246.4 352h0M255.2 352h0M264 352h0M272.8 352h0M281.6 352h0M290.4 352h0M299.2 352h0M308 352h0M316.8 352h0M325.6 352h0M334.4 352h0M343.2 352h0M352 352h0M360.8 352h0M572 352h0M580.8 352h0M589.6 352h0M598.4 352h0M607.2 352h0M616 352h0M624.8 352h0M633.6 352h0M642.4 352h0M651.2 352h0M660 352h0M668.8 352h0M677.6 352h0M704 352h0M712.8 352h0M1020.8 352h0M1029.6 352h0M1038.4 352h0M1047.2 352h0M1056 352h0M1064.8 352h0M1091.2 352h0M1100 352h0M237.6 360.8h0M246.4 360.8h0M255.2 360.8h0M264 360.8h0M272.8 360.8h0M281.6 360.8h0M290.4 360.8h0M299.2 360.8h0M308 360.8h0M316.8 360.8h0M325.6 360.8h0M334.4 360.8h0M343.2 360.8h0M352 360.8h0M360.8 360.8h0M572 360.8h0M580.8 360.8h0M589.6 360.8h0M598.4 360.8h0M607.2 360.8h0M616 360.8h0M624.8 360.8h0M633.6 360.8h0M642.4 360.8h0M651.2 360.8h0M660 360.8h0M704 360.8h0M712.8 360.8h0M1012 360.8h0M1020.8 360.8h0M1029.6 360.8h0M1038.4 360.8h0M1047.2 360.8h0M1056 360.8h0M1064.8 360.8h0M1073.6 360.8h0M1082.4 360.8h0M1091.2 360.8h0M1100 360.8h0M246.4 369.6h0M255.2 369.6h0M264 369.6h0M272.8 369.6h0M281.6 369.6h0M290.4 369.6h0M299.2 369.6h0M308 369.6h0M316.8 369.6h0M325.6 369.6h0M334.4 369.6h0M343.2 369.6h0M352 369.6h0M580.8 369.6h0M589.6 369.6h0M598.4 369.6h0M607.2 369.6h0M616 369.6h0M624.8 369.6h0M633.6 369.6h0M642.4 369.6h0M651.2 369.6h0M704 369.6h0M712.8 369.6h0M994.4 369.6h0M1003.2 369.6h0M1012 369.6h0M1020.8 369.6h0M1029.6 369.6h0M1038.4 369.6h0M1047.2 369.6h0M1056 369.6h0M1064.8 369.6h0M1073.6 369.6h0M1082.4 369.6h0M1091.2 369.6h0M1100 369.6h0M1108.8 369.6h0M246.4 378.4h0M255.2 378.4h0M264 378.4h0M272.8 378.4h0M281.6 378.4h0M290.4 378.4h0M299.2 378.4h0M308 378.4h0M316.8 378.4h0M325.6 378.4h0M334.4 378.4h0M343.2 378.4h0M352 378.4h0M580.8 378.4h0M589.6 378.4h0M598.4 378.4h0M607.2 378.4h0M616 378.4h0M624.8 378.4h0M633.6 378.4h0M642.4 378.4h0M651.2 378.4h0M660 378.4h0M695.2 378.4h0M704 378.4h0M976.8 378.4h0M985.6 378.4h0M994.4 378.4h0M1003.2 378.4h0M1012 378.4h0M1020.8 378.4h0M1029.6 378.4h0M1038.4 378.4h0M1047.2 378.4h0M1056 378.4h0M1064.8 378.4h0M1073.6 378.4h0M1082.4 378.4h0M1091.2 378.4h0M1100 378.4h0M1108.8 378.4h0M1117.6 378.4h0M246.4 387.2h0M255.2 387.2h0M264 387.2h0M272.8 387.2h0M281.6 387.2h0M290.4 387.2h0M299.2 387.2h0M308 387.2h0M316.8 387.2h0M325.6 387.2h0M580.8 387.2h0M589.6 387.2h0M598.4 387.2h0M607.2 387.2h0M616 387.2h0M624.8 387.2h0M633.6 387.2h0M642.4 387.2h0M651.2 387.2h0M704 387.2h0M976.8 387.2h0M985.6 387.2h0M994.4 387.2h0M1003.2 387.2h0M1012 387.2h0M1020.8 387.2h0M1029.6 387.2h0M1038.4 387.2h0M1047.2 387.2h0M1056 387.2h0M1064.8 387.2h0M1073.6 387.2h0M1082.4 387.2h0M1091.2 387.2h0M1100 387.2h0M1108.8 387.2h0M1117.6 387.2h0M1126.4 387.2h0M237.6 396h0M246.4 396h0M255.2 396h0M264 396h0M272.8 396h0M281.6 396h0M290.4 396h0M299.2 396h0M308 396h0M316.8 396h0M325.6 396h0M580.8 396h0M589.6 396h0M598.4 396h0M607.2 396h0M616 396h0M624.8 396h0M633.6 396h0M642.4 396h0M976.8 396h0M985.6 396h0M994.4 396h0M1003.2 396h0M1012 396h0M1020.8 396h0M1029.6 396h0M1038.4 396h0M1047.2 396h0M1056 396h0M1064.8 396h0M1073.6 396h0M1082.4 396h0M1091.2 396h0M1100 396h0M1108.8 396h0M1117.6 396h0M1126.4 396h0M237.6 404.8h0M246.4 404.8h0M255.2 404.8h0M264 404.8h0M272.8 404.8h0M281.6 404.8h0M290.4 404.8h0M299.2 404.8h0M308 404.8h0M316.8 404.8h0M589.6 404.8h0M598.4 404.8h0M607.2 404.8h0M616 404.8h0M624.8 404.8h0M633.6 404.8h0M642.4 404.8h0M985.6 404.8h0M994.4 404.8h0M1003.2 404.8h0M1012 404.8h0M1020.8 404.8h0M1029.6 404.8h0M1038.4 404.8h0M1047.2 404.8h0M1056 404.8h0M1064.8 404.8h0M1073.6 404.8h0M1082.4 404.8h0M1091.2 404.8h0M1100 404.8h0M1108.8 404.8h0M1117.6 404.8h0M1126.4 404.8h0M237.6 413.6h0M246.4 413.6h0M255.2 413.6h0M264 413.6h0M272.8 413.6h0M281.6 413.6h0M290.4 413.6h0M299.2 413.6h0M308 413.6h0M598.4 413.6h0M607.2 413.6h0M616 413.6h0M624.8 413.6h0M633.6 413.6h0M985.6 413.6h0M994.4 413.6h0M1003.2 413.6h0M1012 413.6h0M1020.8 413.6h0M1029.6 413.6h0M1038.4 413.6h0M1047.2 413.6h0M1056 413.6h0M1064.8 413.6h0M1073.6 413.6h0M1082.4 413.6h0M1091.2 413.6h0M1100 413.6h0M1108.8 413.6h0M1117.6 413.6h0M1126.4 413.6h0M237.6 422.4h0M246.4 422.4h0M255.2 422.4h0M264 422.4h0M272.8 422.4h0M281.6 422.4h0M290.4 422.4h0M299.2 422.4h0M598.4 422.4h0M607.2 422.4h0M616 422.4h0M624.8 422.4h0M985.6 422.4h0M994.4 422.4h0M1003.2 422.4h0M1012 422.4h0M1064.8 422.4h0M1073.6 422.4h0M1082.4 422.4h0M1091.2 422.4h0M1100 422.4h0M1108.8 422.4h0M1117.6 422.4h0M237.6 431.2h0M246.4 431.2h0M255.2 431.2h0M264 431.2h0M272.8 431.2h0M281.6 431.2h0M290.4 431.2h0M1082.4 431.2h0M1091.2 431.2h0M1100 431.2h0M1108.8 431.2h0M1117.6 431.2h0M228.8 440h0M237.6 440h0M246.4 440h0M255.2 440h0M264 440h0M272.8 440h0M281.6 440h0M1091.2 440h0M1108.8 440h0M228.8 448.8h0M237.6 448.8h0M246.4 448.8h0M255.2 448.8h0M264 448.8h0M237.6 457.6h0M246.4 457.6h0M255.2 457.6h0M264 457.6h0M1108.8 457.6h0M228.8 466.4h0M237.6 466.4h0M246.4 466.4h0M255.2 466.4h0"/></svg>